<svg width="19" height="18" viewBox="0 0 19 18" fill="none" xmlns="http://www.w3.org/2000/svg">
<path d="M13.0625 8.25C13.0625 8.56065 12.8106 8.8125 12.5 8.8125H6.5C6.18934 8.8125 5.9375 8.56065 5.9375 8.25C5.9375 7.93935 6.18934 7.6875 6.5 7.6875H12.5C12.8106 7.6875 13.0625 7.93935 13.0625 8.25Z" fill="#8FA0A0"/>
<path fill-rule="evenodd" clip-rule="evenodd" d="M3.78992 6.11002L4.68147 3.67432C4.90615 3.06049 5.45109 2.62064 6.09852 2.53054C8.35578 2.21642 10.6457 2.21642 12.903 2.53054C13.5504 2.62064 14.0954 3.0605 14.3201 3.67434L15.2117 6.11025C15.3784 6.37042 15.4932 6.66781 15.5415 6.98842L15.618 7.4968C15.9178 9.4908 15.8898 11.5204 15.5349 13.5052C15.3777 14.3852 14.655 15.0537 13.7654 15.142L12.8426 15.2335C10.6201 15.4541 8.38128 15.4541 6.15886 15.2335L5.23601 15.142C4.34646 15.0537 3.62379 14.3852 3.46649 13.5052C3.11169 11.5204 3.08365 9.4908 3.3835 7.4968L3.45995 6.98842C3.50817 6.66772 3.62309 6.37024 3.78992 6.11002ZM6.25358 3.6448C8.40798 3.345 10.5936 3.345 12.7479 3.6448C12.9835 3.67759 13.1818 3.83765 13.2636 4.06102L13.6433 5.09827C13.6092 5.09331 13.575 5.08912 13.5405 5.08569L12.8069 5.01287C10.6082 4.79464 8.39328 4.79464 6.19458 5.01288L5.46093 5.08569C5.42647 5.08911 5.39224 5.0933 5.35826 5.09825L5.73792 4.06102C5.81968 3.83765 6.01798 3.67759 6.25358 3.6448ZM4.76498 6.67573L4.77897 6.68086L4.79634 6.63342C4.98064 6.39652 5.25748 6.23641 5.57205 6.20519L6.30569 6.13237C8.43048 5.92148 10.5709 5.92148 12.6957 6.13237L13.4294 6.20519C13.744 6.23642 14.0209 6.39659 14.2052 6.63357L14.2225 6.68085L14.2365 6.67575C14.3348 6.81517 14.4023 6.97833 14.429 7.15571L14.5054 7.6641C14.787 9.53685 14.7607 11.443 14.4275 13.3073C14.3588 13.6918 14.043 13.9839 13.6543 14.0224L12.7314 14.1141C10.5829 14.3273 8.41856 14.3273 6.26997 14.1141L5.34713 14.0224C4.95843 13.9839 4.64267 13.6918 4.57394 13.3073C4.2407 11.443 4.21437 9.53685 4.49599 7.6641L4.57244 7.15571C4.59912 6.97832 4.66663 6.81516 4.76498 6.67573Z" fill="#8FA0A0"/>
</svg>
