<svg width="25" height="25" viewBox="0 0 25 25" fill="none" xmlns="http://www.w3.org/2000/svg">
<path fill-rule="evenodd" clip-rule="evenodd" d="M19.9704 5.46742L12.7867 5.30493L5.60301 5.46742C4.27185 5.49753 3.14475 6.45815 2.90406 7.76771C2.32234 10.9328 2.32234 14.1774 2.90406 17.3425C3.14475 18.6521 4.27185 19.6127 5.60301 19.6428L12.7867 19.8053L19.9704 19.6428C21.3016 19.6127 22.4287 18.6521 22.6694 17.3425C23.2511 14.1774 23.2511 10.9328 22.6694 7.76771C22.4287 6.45814 21.3016 5.49753 19.9704 5.46742ZM5.63693 6.96703L12.7867 6.80531L19.9365 6.96703C20.5568 6.98106 21.0819 7.42866 21.1941 8.03886C21.3474 8.87285 21.4578 9.71269 21.5255 10.5551H4.04795C4.1156 9.71269 4.22607 8.87285 4.37935 8.03886C4.4915 7.42866 5.01667 6.98106 5.63693 6.96703ZM3.96777 12.5551C3.96777 14.0668 4.10496 15.5784 4.37935 17.0714C4.4915 17.6816 5.01667 18.1292 5.63693 18.1432L12.7867 18.3049L19.9365 18.1432C20.5568 18.1292 21.0819 17.6816 21.1941 17.0714C21.4685 15.5784 21.6057 14.0668 21.6057 12.5551H3.96777Z" fill="#299B9B"/>
</svg>
