<svg width="18" height="18" viewBox="0 0 18 18" fill="none" xmlns="http://www.w3.org/2000/svg">
<path d="M6 7.125C5.48223 7.125 5.0625 7.54472 5.0625 8.06252C5.0625 8.58024 5.48223 9.00002 6 9.00002C6.51777 9.00002 6.9375 8.58024 6.9375 8.06252C6.9375 7.54472 6.51777 7.125 6 7.125Z" fill="#8FA0A0"/>
<path d="M9 7.125C8.4822 7.125 8.0625 7.54472 8.0625 8.06252C8.0625 8.58024 8.4822 9.00002 9 9.00002C9.5178 9.00002 9.9375 8.58024 9.9375 8.06252C9.9375 7.54472 9.5178 7.125 9 7.125Z" fill="#8FA0A0"/>
<path d="M11.0625 8.06252C11.0625 7.54472 11.4822 7.125 12 7.125C12.5178 7.125 12.9375 7.54472 12.9375 8.06252C12.9375 8.58024 12.5178 9.00002 12 9.00002C11.4822 9.00002 11.0625 8.58024 11.0625 8.06252Z" fill="#8FA0A0"/>
<path fill-rule="evenodd" clip-rule="evenodd" d="M12.0755 3.44456C10.0549 3.27224 8.02372 3.26224 6.00145 3.41466L5.85653 3.42558C3.92806 3.57093 2.4375 5.17805 2.4375 7.112V13.5C2.4375 13.6979 2.5415 13.8812 2.71136 13.9828C2.88122 14.0843 3.09196 14.0891 3.26628 13.9954L6.19937 12.4192C6.33581 12.3458 6.48828 12.3075 6.64317 12.3075H13.3755C14.2246 12.3075 14.9522 11.7004 15.1044 10.8651C15.4129 9.17218 15.4372 7.43971 15.1765 5.73878L15.0997 5.23753C14.9598 4.32497 14.2133 3.62686 13.2934 3.54841L12.0755 3.44456ZM6.08601 4.53647C8.04825 4.38858 10.0192 4.39828 11.98 4.56549L13.1978 4.66934C13.6001 4.70365 13.9264 5.00893 13.9876 5.40799L14.0644 5.90924C14.3062 7.4867 14.2837 9.09344 13.9976 10.6635C13.9428 10.964 13.681 11.1825 13.3755 11.1825H6.64317C6.30242 11.1825 5.96697 11.2669 5.66681 11.4282L3.5625 12.5591V7.112C3.5625 5.76657 4.59947 4.64852 5.94108 4.5474L6.08601 4.53647Z" fill="#8FA0A0"/>
</svg>
