<svg width="18" height="18" viewBox="0 0 18 18" fill="none" xmlns="http://www.w3.org/2000/svg">
<path fill-rule="evenodd" clip-rule="evenodd" d="M11.3526 2.60225C11.2471 2.49677 11.104 2.4375 10.9548 2.4375C10.8057 2.4375 10.6626 2.49677 10.5571 2.60225L3.66281 9.49657C3.59214 9.56722 3.54157 9.65542 3.51632 9.7521L2.76632 12.6235C2.71585 12.8167 2.77161 13.0222 2.91281 13.1633C3.05401 13.3045 3.2595 13.3604 3.45271 13.3099L6.32403 12.5599C6.42073 12.5346 6.50895 12.484 6.57963 12.4133L13.4739 5.51907C13.6935 5.29939 13.6935 4.94324 13.4739 4.72357L11.3526 2.60225ZM4.56622 10.1841L10.9548 3.79549L12.2807 5.12132L5.89205 11.5099L4.09748 11.9787L4.56622 10.1841Z" fill="#299B9B"/>
<path d="M3 14.4375C2.68934 14.4375 2.4375 14.6893 2.4375 15C2.4375 15.3107 2.68934 15.5625 3 15.5625H14.25C14.5607 15.5625 14.8125 15.3107 14.8125 15C14.8125 14.6893 14.5607 14.4375 14.25 14.4375H3Z" fill="#299B9B"/>
</svg>
