<svg width="19" height="18" viewBox="0 0 19 18" fill="none" xmlns="http://www.w3.org/2000/svg">
<path d="M9.5 8.0625C9.81065 8.0625 10.0625 8.31435 10.0625 8.625V12.375C10.0625 12.6856 9.81065 12.9375 9.5 12.9375C9.18935 12.9375 8.9375 12.6856 8.9375 12.375V8.625C8.9375 8.31435 9.18935 8.0625 9.5 8.0625Z" fill="#8FA0A0"/>
<path d="M9.5 6.75C9.91422 6.75 10.25 6.41421 10.25 6C10.25 5.58579 9.91422 5.25 9.5 5.25C9.08578 5.25 8.75 5.58579 8.75 6C8.75 6.41421 9.08578 6.75 9.5 6.75Z" fill="#8FA0A0"/>
<path fill-rule="evenodd" clip-rule="evenodd" d="M2.9375 9C2.9375 5.37563 5.87563 2.4375 9.5 2.4375C13.1244 2.4375 16.0625 5.37563 16.0625 9C16.0625 12.6244 13.1244 15.5625 9.5 15.5625C5.87563 15.5625 2.9375 12.6244 2.9375 9ZM9.5 3.5625C6.49696 3.5625 4.0625 5.99696 4.0625 9C4.0625 12.0031 6.49696 14.4375 9.5 14.4375C12.5031 14.4375 14.9375 12.0031 14.9375 9C14.9375 5.99696 12.5031 3.5625 9.5 3.5625Z" fill="#8FA0A0"/>
</svg>
