<svg width="18" height="18" viewBox="0 0 18 18" fill="none" xmlns="http://www.w3.org/2000/svg">
<path fill-rule="evenodd" clip-rule="evenodd" d="M8.4375 4.34126C5.69875 4.62273 3.5625 6.9369 3.5625 9.75C3.5625 12.7531 5.99696 15.1875 9 15.1875C11.8131 15.1875 14.1273 13.0513 14.4088 10.3125H9C8.68935 10.3125 8.4375 10.0607 8.4375 9.75V4.34126ZM2.4375 9.75C2.4375 6.12565 5.37563 3.18752 9 3.18752C9.31065 3.18752 9.5625 3.43936 9.5625 3.75002V9.1875H15C15.3106 9.1875 15.5625 9.43935 15.5625 9.75C15.5625 13.3744 12.6244 16.3125 9 16.3125C5.37563 16.3125 2.4375 13.3744 2.4375 9.75Z" fill="#8FA0A0"/>
<path fill-rule="evenodd" clip-rule="evenodd" d="M11.625 3.50525V7.12502H15.2448C14.8225 5.33672 13.4133 3.92752 11.625 3.50525ZM11.2485 2.29625C13.9637 2.63415 16.1158 4.78627 16.4538 7.5015C16.505 7.91258 16.1642 8.25 15.75 8.25H10.875C10.6679 8.25 10.5 8.08215 10.5 7.875V3.00002C10.5 2.5858 10.8375 2.2451 11.2485 2.29625Z" fill="#8FA0A0"/>
</svg>
