<svg width="19" height="18" viewBox="0 0 19 18" fill="none" xmlns="http://www.w3.org/2000/svg">
<path d="M5.40913 6.12205C5.24772 6.07947 5.11356 5.96739 5.04294 5.81612C4.97232 5.66485 4.97253 5.49004 5.04353 5.33895L6.28909 2.68816C6.38191 2.49061 6.58062 2.3646 6.79889 2.36487C7.01715 2.36514 7.21554 2.49165 7.30788 2.68942L7.85735 3.86634C7.87699 3.85862 7.89728 3.85192 7.91815 3.84633C11.1786 2.97268 14.5301 4.90761 15.4037 8.16811C16.2773 11.4287 14.3424 14.78 11.082 15.6537C7.82141 16.5273 4.47001 14.5924 3.59636 11.3319C3.31854 10.295 3.32479 9.24743 3.56811 8.27333C3.64341 7.97198 3.94878 7.78868 4.25017 7.86398C4.55157 7.93921 4.73487 8.24461 4.65957 8.54603C4.46136 9.33953 4.45589 10.193 4.68303 11.0408C5.39586 13.7011 8.1304 15.2798 10.7907 14.567C13.4511 13.8542 15.0299 11.1197 14.3171 8.45933C13.6158 5.84243 10.9586 4.27207 8.33988 4.89986L8.89428 6.08734C8.9866 6.2851 8.95615 6.51844 8.81628 6.68593C8.67633 6.85343 8.45215 6.92486 8.2411 6.86919L5.40913 6.12205Z" fill="#8FA0A0"/>
</svg>
